<?xml version="1.0" encoding="UTF-8" standalone="no"?>
<svg
   version="1.1"
   width="256"
   height="256"
   id="svg15"
   sodipodi:docname="letter.svg"
   inkscape:version="1.4 (e7c3feb100, 2024-10-09)"
   xmlns:inkscape="http://www.inkscape.org/namespaces/inkscape"
   xmlns:sodipodi="http://sodipodi.sourceforge.net/DTD/sodipodi-0.dtd"
   xmlns="http://www.w3.org/2000/svg"
   xmlns:svg="http://www.w3.org/2000/svg">
  <defs
     id="defs15" />
  <sodipodi:namedview
     id="namedview15"
     pagecolor="#ffffff"
     bordercolor="#000000"
     borderopacity="0.25"
     inkscape:showpageshadow="2"
     inkscape:pageopacity="0.0"
     inkscape:pagecheckerboard="0"
     inkscape:deskcolor="#d1d1d1"
     inkscape:zoom="1.2953501"
     inkscape:cx="-35.511636"
     inkscape:cy="185.6641"
     inkscape:window-width="1920"
     inkscape:window-height="993"
     inkscape:window-x="0"
     inkscape:window-y="0"
     inkscape:window-maximized="1"
     inkscape:current-layer="svg15" />
  <path
     d="m 51.967307,2.4797056 c 3.053736,1.7102399 5.709684,3.497285 8.05326,6.1696541 0.397022,0.4481971 0.794045,0.8963941 1.2031,1.3581733 4.310642,5.481144 5.152571,11.025579 5.088742,17.86846 -0.0026,0.526464 -0.0051,1.052928 -0.0078,1.595347 -0.0066,1.290731 -0.01607,2.58138 -0.02791,3.87207 0.369379,-5.63e-4 0.738758,-0.0011 1.119331,-0.0017 21.885359,-0.03314 43.77072,-0.05857 65.6561,-0.07395 2.62696,-0.0019 5.25391,-0.0038 7.88087,-0.0058 0.78449,-5.84e-4 0.78449,-5.84e-4 1.58481,-0.0012 8.47159,-0.0065 16.94315,-0.01813 25.41473,-0.03175 8.6906,-0.01385 17.3812,-0.02208 26.07182,-0.02509 5.36392,-0.002 10.72779,-0.0085 16.09169,-0.02049 3.67667,-0.0079 7.35333,-0.0102 11.03001,-0.0083 2.12224,9.51e-4 4.24441,-5.22e-4 6.36663,-0.0085 1.94298,-0.0072 3.88585,-0.0076 5.82884,-0.0025 0.70281,6.26e-4 1.40564,-0.0013 2.10842,-0.0059 7.46084,-0.04647 7.46084,-0.04647 10.74045,2.87051 1.74457,2.097326 2.13547,3.458552 2.13899,6.220393 0.003,0.614258 0.006,1.228515 0.009,1.861386 -9.9e-4,0.682829 -0.003,1.365658 -0.005,2.048487 0.002,0.724472 0.004,1.448941 0.007,2.17341 0.006,1.993518 0.006,3.986993 0.005,5.980517 -1.9e-4,2.148962 0.005,4.297912 0.0101,6.446868 0.008,4.211301 0.0106,8.42259 0.0112,12.633899 4.7e-4,3.42267 0.002,6.845336 0.006,10.268004 0.009,9.700352 0.0129,19.400686 0.0122,29.101046 -4e-5,0.78473 -4e-5,0.78473 -1e-4,1.58531 -4e-5,0.5238 -9e-5,1.04758 -1.3e-4,1.58725 -4e-4,8.4896 0.009,16.97914 0.0224,25.46872 0.0138,8.71356 0.0204,17.42712 0.0196,26.14069 -3.2e-4,4.8934 0.002,9.78676 0.0127,14.68015 0.009,4.16634 0.0109,8.33261 0.004,12.49895 -0.003,2.126 -0.003,4.25187 0.005,6.37786 0.008,1.94645 0.006,3.89268 -0.002,5.83914 -9.9e-4,0.70392 2.8e-4,1.40787 0.006,2.11178 0.0468,6.59096 0.0468,6.59096 -2.17083,9.49604 -2.62674,2.13412 -4.50415,2.53134 -7.78499,2.53017 -0.61402,9.9e-4 -1.22804,0.002 -1.86068,0.003 -0.6828,-10e-4 -1.36561,-0.003 -2.04841,-0.004 -0.72421,2.1e-4 -1.44842,6.4e-4 -2.17263,9.9e-4 -1.99288,0.001 -3.98576,-8.7e-4 -5.97864,-0.003 -2.14802,-0.002 -4.29604,-10e-4 -6.44406,-10e-4 -3.72252,2.6e-4 -7.44505,-9.9e-4 -11.16759,-0.004 -5.38216,-0.004 -10.76433,-0.005 -16.14652,-0.006 -8.73181,-9.9e-4 -17.46363,-0.004 -26.19545,-0.009 -8.48311,-0.005 -16.96623,-0.008 -25.44936,-0.0102 -0.78408,-1.9e-4 -0.78408,-1.9e-4 -1.58403,-3.9e-4 -2.62233,-6.5e-4 -5.24466,-9.9e-4 -7.86701,-0.002 -21.76152,-0.005 -43.52304,-0.0138 -65.284562,-0.0249 0.004,0.3239 0.0082,0.6478 0.01241,0.98151 0.01638,1.48564 0.02648,2.97127 0.03647,4.45697 0.0065,0.50946 0.0131,1.01891 0.01986,1.5438 0.03669,7.28144 -2.162908,13.15479 -6.806097,18.69953 -6.462103,5.75923 -13.065192,7.38183 -21.372434,7.02623 -5.459178,-0.4903 -10.631249,-3.91079 -14.239361,-8.01399 -0.236972,-0.25847 -0.473946,-0.51695 -0.718099,-0.78326 -4.634277,-5.22924 -5.789171,-11.40907 -5.628259,-18.32376 0.0065,-0.54083 0.01302,-1.08166 0.01974,-1.63887 0.0168,-1.31633 0.0404,-2.6321 0.0705,-3.94816 -0.62097,0.0172 -1.241939,0.0343 -1.881726,0.0521 -0.826499,0.0139 -1.653005,0.0274 -2.479516,0.0405 -0.61182,0.0186 -0.61182,0.0186 -1.235999,0.0376 -3.3767284,0.0401 -5.6476678,-0.48465 -8.2684999,-2.81569 -1.7445759,-2.09733 -2.1354794,-3.45856 -2.1390026,-6.2204 -0.00311,-0.61425 -0.0062,-1.22852 -0.0094,-1.86138 0.00142,-0.68283 0.00293,-1.36566 0.00452,-2.04849 -0.0018,-0.72447 -0.00401,-1.44894 -0.00661,-2.17342 -0.0059,-1.99351 -0.00576,-3.98698 -0.00463,-5.98051 1.961e-4,-2.14897 -0.00511,-4.29791 -0.00968,-6.44687 -0.00801,-4.2113 -0.01064,-8.42259 -0.011177,-12.6339 -4.57e-4,-3.42267 -0.00243,-6.84533 -0.00549,-10.268 -0.00848,-9.70035 -0.012916,-19.4007 -0.012195,-29.10105 3.84e-5,-0.52316 7.69e-5,-1.0463 1.165e-4,-1.58531 3.94e-5,-0.52379 7.87e-5,-1.04759 1.193e-4,-1.58725 3.912e-4,-8.48959 -0.00882,-16.97914 -0.022389,-25.46872 -0.013819,-8.71357 -0.020472,-17.427109 -0.019641,-26.140688 3.198e-4,-4.893403 -0.00233,-9.786762 -0.012683,-14.680155 -0.00876,-4.166332 -0.010864,-8.332598 -0.00432,-12.498937 0.00315,-2.125999 0.00318,-4.251872 -0.00515,-6.37786 -0.00755,-1.946458 -0.00622,-3.892689 0.0022,-5.839141 0.00148,-0.703929 -2.859e-4,-1.407874 -0.00564,-2.111783 -0.046813,-6.59096 -0.046813,-6.59096 2.1708229,-9.496041 2.3170784,-1.882536 4.0931929,-2.537795 7.0005448,-2.517635 0.406329,0.0016 0.812657,0.0032 1.231298,0.0048 0.629965,0.0062 0.629965,0.0062 1.272656,0.01254 0.42742,0.0022 0.854841,0.0045 1.295214,0.0068 1.05212,0.0058 2.104173,0.01392 3.156261,0.02411 -0.01008,-0.325444 -0.02016,-0.650888 -0.03055,-0.986195 C 17.386269,22.853691 18.127943,16.465671 23.567524,8.5571852 30.778516,0.98859362 42.421459,-2.0125167 51.96823,2.4801337 Z"
     fill="#d9472b"
     id="path1"
     style="stroke-width:0.48752" />
  <path
     d="m 84.166787,66.622619 c 32.611073,-0.04006 32.611073,-0.04006 46.222063,-0.0485 3.11545,-0.0019 6.2309,-0.0039 9.34634,-0.0061 0.39049,-2.6e-4 0.78095,-5.23e-4 1.18326,-7.93e-4 6.30362,-0.0043 12.60723,-0.01216 18.91086,-0.02128 6.46934,-0.0094 12.93868,-0.0148 19.40803,-0.01683 3.99184,-0.0014 7.98366,-0.0057 11.97549,-0.01374 3.06108,-0.0059 6.12214,-0.0065 9.18322,-0.0052 1.25566,-2.74e-4 2.51131,-0.0023 3.76696,-0.0061 1.71333,-0.0049 3.42657,-0.0038 5.1399,-9.95e-4 0.49768,-0.0029 0.99536,-0.0058 1.50814,-0.0088 3.2842,0.01408 6.09105,0.07224 8.70243,2.270195 2.37488,2.839284 2.8233,4.662382 2.79758,8.279621 0.004,0.67491 0.004,0.67491 0.008,1.363456 0.007,1.508049 0.003,3.015881 2e-5,4.52394 0.003,1.081066 0.006,2.162131 0.0104,3.243192 0.009,2.937045 0.008,5.874014 0.005,8.811067 -0.001,2.451387 9.9e-4,4.902761 0.004,7.354138 0.007,5.78316 0.006,11.56628 5.5e-4,17.34945 -0.006,5.96695 9.9e-4,11.93378 0.0147,17.90071 0.011,5.12219 0.0143,10.24434 0.0113,15.36653 -0.002,3.0596 -4.5e-4,6.11912 0.008,9.17871 0.007,2.87744 0.006,5.7547 -0.004,8.63213 -0.002,1.05577 -2.8e-4,2.11158 0.005,3.16734 0.006,1.44197 8.4e-4,2.8834 -0.008,4.32535 0.005,0.41722 0.009,0.83442 0.0144,1.26427 -0.0354,2.82814 -0.61932,4.47371 -2.24809,6.80002 -2.50595,2.02796 -4.6414,2.54607 -7.80202,2.54456 -0.45956,9.8e-4 -0.91909,0.002 -1.39258,0.003 -0.50058,-9.9e-4 -1.00114,-0.003 -1.51689,-0.004 -0.53507,4.3e-4 -1.07011,8.6e-4 -1.62139,10e-4 -1.79586,8.1e-4 -3.59171,-0.002 -5.38758,-0.005 -1.28614,-1.4e-4 -2.5723,-6e-5 -3.85843,2.2e-4 -2.77053,2.6e-4 -5.54106,-0.001 -8.31158,-0.004 -4.00573,-0.004 -8.01143,-0.005 -12.01715,-0.006 -6.49909,-9.9e-4 -12.99821,-0.004 -19.49729,-0.009 -6.31304,-0.005 -12.62608,-0.008 -18.93912,-0.0103 -0.39314,-1.4e-4 -0.78629,-2.7e-4 -1.19135,-4.1e-4 -3.07469,-9.9e-4 -6.14935,-0.002 -9.22404,-0.003 -15.06917,-0.005 -30.138355,-0.0147 -45.207541,-0.0239 0,-40.32117 0,-80.64233 0,-122.185353 z"
     fill="#fccc98"
     id="path2"
     style="stroke-width:0.49646" />
  <path
     d="m 144.70682,33.344497 c 13.46239,-0.03363 26.92473,-0.06109 40.38714,-0.07721 6.25078,-0.0077 12.50152,-0.01816 18.75229,-0.0352 5.44795,-0.01484 10.89588,-0.02446 16.34382,-0.02779 2.88485,-0.0019 5.76965,-0.0065 8.65447,-0.01735 2.71546,-0.01012 5.43084,-0.01323 8.14632,-0.01099 0.9964,-4.11e-4 1.99279,-0.0034 2.98916,-0.0092 1.36138,-0.0074 2.72242,-0.0056 4.08381,-0.0016 0.39342,-0.0043 0.78684,-0.0087 1.1922,-0.01316 3.23146,0.02604 5.53312,0.725316 8.03207,2.893082 1.79893,2.109248 2.20201,3.478212 2.20564,6.255751 0.003,0.61775 0.006,1.235499 0.009,1.871967 -10e-4,0.686711 -0.003,1.37342 -0.005,2.060131 0.002,0.728589 0.004,1.457178 0.007,2.185765 0.006,2.004849 0.006,4.009656 0.005,6.014512 -2e-4,2.161178 0.005,4.322341 0.0103,6.483513 0.008,4.23524 0.0109,8.470467 0.0116,12.705715 4.7e-4,3.442124 0.002,6.884246 0.006,10.326369 0.009,9.755493 0.0133,19.510968 0.0126,29.266468 -3e-5,0.52612 -8e-5,1.05224 -1.2e-4,1.59432 -4e-5,0.52677 -9e-5,1.05353 -1.3e-4,1.59626 -4e-4,8.53786 0.009,17.07566 0.0231,25.61349 0.0142,8.7631 0.021,17.52619 0.0202,26.28929 -3.3e-4,4.92122 0.002,9.84239 0.0131,14.7636 0.009,4.19002 0.0112,8.37997 0.004,12.56999 -0.003,2.13809 -0.003,4.27604 0.005,6.41412 0.008,1.95751 0.006,3.9148 -0.002,5.87232 -9.9e-4,0.70793 3e-4,1.41588 0.006,2.12379 0.0483,6.62842 0.0483,6.62842 -2.23845,9.55002 -3.02443,2.39655 -5.38934,2.55682 -9.13831,2.54318 -0.42521,4.1e-4 -0.85042,8.3e-4 -1.28851,9.9e-4 -1.42711,8.3e-4 -2.85416,-0.002 -4.28126,-0.005 -1.02208,-1.5e-4 -2.04414,-7e-5 -3.06622,2.2e-4 -2.77724,1.4e-4 -5.55448,-0.003 -8.33174,-0.006 -2.90144,-0.003 -5.80289,-0.003 -8.70433,-0.004 -5.49548,-0.002 -10.99094,-0.006 -16.48641,-0.0107 -6.25591,-0.006 -12.51181,-0.008 -18.76772,-0.0109 -12.86993,-0.005 -25.73989,-0.0143 -38.60983,-0.025 0,-10.98178 0,-21.96356 0,-33.27812 5.01054,-0.0243 10.02108,-0.0487 15.18347,-0.0737 3.17283,-0.0175 6.34567,-0.0353 9.5185,-0.0543 5.03688,-0.0301 10.07375,-0.0589 15.11066,-0.0815 3.66841,-0.0164 7.33678,-0.0361 11.00515,-0.06 1.94183,-0.0126 3.88363,-0.0233 5.8255,-0.0301 1.8292,-0.006 3.65832,-0.0174 5.48749,-0.0319 0.98837,-0.007 1.97677,-0.008 2.96516,-0.0102 2.97025,-0.0278 5.55015,-0.11297 8.34609,-1.14849 0.56802,-0.19977 0.56802,-0.19977 1.14753,-0.40356 1.17189,-0.82543 1.39477,-1.73335 1.82983,-3.07326 0.16376,-0.32782 0.32753,-0.65563 0.49625,-0.99338 0.0509,-1.43348 0.0712,-2.85511 0.0696,-4.28882 9.9e-4,-0.44938 0.003,-0.89874 0.004,-1.36173 0.004,-1.51493 0.005,-3.02984 0.006,-4.54478 0.002,-1.08246 0.005,-2.16491 0.007,-3.24737 0.006,-2.94731 0.0103,-5.8946 0.0119,-8.84192 0.001,-1.83991 0.003,-3.67982 0.006,-5.51973 0.007,-6.08333 0.0118,-12.16667 0.0138,-18.25 1.1e-4,-0.32815 2.2e-4,-0.65629 3.5e-4,-0.99439 1.1e-4,-0.32854 2.1e-4,-0.65709 3.3e-4,-0.99559 0.002,-4.99252 0.009,-9.985 0.02,-14.9775 0.0125,-5.79495 0.0199,-11.58989 0.0206,-17.38486 5.2e-4,-3.068453 0.003,-6.136867 0.0124,-9.205315 0.008,-2.885943 0.009,-5.771799 0.005,-8.657748 -3.8e-4,-1.060204 0.002,-2.120412 0.007,-3.180604 0.006,-1.445572 0.003,-2.890846 -0.002,-4.336417 0.004,-0.421123 0.008,-0.842246 0.0121,-1.276131 -0.0197,-2.349218 -0.27518,-3.718399 -1.68316,-5.68535 0,-0.327814 0,-0.655628 0,-0.993376 -3.96388,-2.221832 -7.83594,-2.1377 -12.27575,-2.145122 -0.68985,-0.0046 -1.3797,-0.0098 -2.06954,-0.01512 -1.8647,-0.01352 -3.72937,-0.02107 -5.59409,-0.02754 -1.95175,-0.0078 -3.90347,-0.02109 -5.85519,-0.03379 -3.69226,-0.02321 -7.38453,-0.04148 -11.07683,-0.05795 -4.99195,-0.02257 -9.98384,-0.05279 -14.97575,-0.08257 -7.85991,-0.0467 -15.71982,-0.08319 -23.57979,-0.121356 0,-10.98178 0,-21.96356 0,-33.278122 z"
     fill="#d9472b"
     id="path3"
     style="stroke-width:0.49646" />
  <path
     d="m 51.967307,2.4797056 c 3.053736,1.7102399 5.709684,3.497285 8.05326,6.1696541 0.397022,0.4481971 0.794045,0.8963941 1.2031,1.3581733 5.745035,7.30503 5.053024,14.277249 5.053024,23.829759 -8.099275,0 -16.198553,0 -24.543262,0 0,61.606716 0,123.213428 0,186.687028 8.099277,0 16.198553,0 24.543262,0 0,18.13015 0,18.13015 -6.737365,26.17569 -6.462103,5.75922 -13.065191,7.38183 -21.372433,7.02623 -5.459179,-0.49031 -10.63125,-3.9108 -14.239361,-8.014 -0.236973,-0.25847 -0.473947,-0.51695 -0.7181,-0.78326 -4.634277,-5.22924 -5.78917,-11.40906 -5.628258,-18.32376 0.0065,-0.54083 0.01302,-1.08165 0.01974,-1.63887 0.0168,-1.31632 0.0404,-2.6321 0.0705,-3.94816 -0.620969,0.0172 -1.241939,0.0343 -1.881725,0.0521 -0.826499,0.0139 -1.653005,0.0274 -2.479516,0.0405 -0.61182,0.0186 -0.61182,0.0186 -1.236,0.0376 -3.3767279,0.0401 -5.6476675,-0.48464 -8.2684996,-2.81569 -1.7445759,-2.09733 -2.1354794,-3.45855 -2.1390026,-6.2204 -0.00311,-0.61425 -0.0062,-1.22851 -0.0094,-1.86138 0.00142,-0.68283 0.00293,-1.36566 0.00452,-2.04849 -0.0018,-0.72447 -0.00401,-1.44894 -0.00661,-2.17341 -0.0059,-1.99352 -0.00576,-3.98699 -0.00463,-5.98052 1.961e-4,-2.14896 -0.00511,-4.29791 -0.00968,-6.44687 -0.00801,-4.2113 -0.01064,-8.42259 -0.011177,-12.63389 -4.571e-4,-3.42268 -0.00243,-6.84534 -0.00549,-10.26801 -0.00848,-9.70035 -0.012916,-19.40069 -0.012194,-29.10105 3.85e-5,-0.52315 7.7e-5,-1.0463 1.166e-4,-1.58531 3.94e-5,-0.52379 7.87e-5,-1.04759 1.192e-4,-1.58725 3.912e-4,-8.48959 -0.00882,-16.97914 -0.022389,-25.46872 -0.013819,-8.71356 -0.020472,-17.427109 -0.019641,-26.140688 3.197e-4,-4.893403 -0.00233,-9.786762 -0.012683,-14.680155 -0.00876,-4.166332 -0.010864,-8.332598 -0.00432,-12.498937 0.00315,-2.125999 0.00318,-4.251872 -0.00515,-6.37786 -0.00755,-1.946457 -0.00621,-3.892689 0.0022,-5.839141 0.00148,-0.703929 -2.858e-4,-1.407874 -0.00564,-2.111783 -0.046813,-6.59096 -0.046813,-6.59096 2.1708229,-9.496041 C 6.0325239,33.930259 7.8086384,33.275 10.71599,33.29516 c 0.406328,0.0016 0.812658,0.0032 1.231299,0.0048 0.629964,0.0062 0.629964,0.0062 1.272656,0.01254 0.42742,0.0022 0.85484,0.0045 1.295214,0.0068 1.052119,0.0058 2.104173,0.01392 3.15626,0.02411 -0.01008,-0.325444 -0.02016,-0.650888 -0.03055,-0.986195 C 17.385356,22.853239 18.12703,16.465219 23.566612,8.5567332 30.777605,0.98814163 42.420548,-2.0129687 51.967317,2.4796817 Z"
     fill="#e6563a"
     id="path4"
     style="stroke-width:0.48752" />
  <path
     d="m 84.166787,67.119307 c 19.978213,0 39.956413,0 60.540033,0 0,10.817873 0,21.635746 0,32.781433 -2.67638,0.007 -5.35276,0.01409 -8.11024,0.02134 -1.70066,0.01002 -3.40125,0.02066 -5.10188,0.03395 -2.69634,0.02101 -5.3925,0.03939 -8.08893,0.04183 -2.17519,0.0021 -4.35003,0.01632 -6.52511,0.03868 -0.8277,0.006 -1.65545,0.009 -2.48319,0.006 -6.12522,-0.07089 -6.12522,-0.07089 -11.37394,2.838 -1.51908,1.61551 -1.59942,3.04009 -1.67479,5.18419 0.07,2.2672 0.33737,3.85039 1.67479,5.74296 2.4488,2.26725 4.37444,2.55884 7.60081,2.58541 0.37401,0.005 0.74801,0.0101 1.13334,0.0151 1.21028,0.0156 2.42056,0.028 3.63088,0.04 0.74736,0.009 1.49472,0.0185 2.24207,0.0281 2.7708,0.034 5.54166,0.0638 8.31249,0.0941 6.19204,0.0717 12.38405,0.14341 18.7637,0.21729 0,23.60264 0,47.20526 0,71.52314 -19.97821,0 -39.95642,0 -60.540033,0 0,-39.99335 0,-79.98671 0,-121.191974 z"
     fill="#fedfb1"
     id="path5"
     style="stroke-width:0.49646" />
  <path
     d="m 67.791202,33.344497 c 25.382157,0 50.764298,0 76.915618,0 0,10.981781 0,21.96356 0,33.278122 -19.97821,0 -39.95642,0 -60.540033,0 -0.163755,-8.68708 -0.327512,-17.37416 -0.49623,-26.324484 -1.579304,-3.657519 -1.579304,-3.657519 -4.413974,-5.633339 -2.116354,-0.662371 -4.270597,-0.666303 -6.472067,-0.699438 -0.481352,-0.01472 -0.962705,-0.02946 -1.458645,-0.04462 -1.178263,-0.03486 -2.356052,-0.06116 -3.534669,-0.07955 0,-0.163907 0,-0.327814 0,-0.496689 z"
     fill="#e55539"
     id="path6"
     style="stroke-width:0.49646" />
  <path
     d="m 84.166787,188.80796 c 19.978213,0 39.956413,0 60.540033,0 0,10.98178 0,21.96356 0,33.27812 -22.5983,0 -45.196602,0 -68.47971,0 1.232415,-0.61677 2.471972,-1.21972 3.721724,-1.80049 2.192473,-1.28221 2.192473,-1.28221 3.721723,-5.15315 0.163756,-8.68708 0.327513,-17.37416 0.49623,-26.32448 z"
     fill="#e55539"
     id="path7"
     style="stroke-width:0.49646" />
  <path
     d="m 114.30501,99.587279 c 0.73726,-0.0026 1.4745,-0.0062 2.21175,-0.01077 1.99322,-0.0093 3.98609,-0.0028 5.97928,0.007 2.09095,0.0082 4.18185,0.0038 6.2728,0.0012 3.51065,-0.0022 7.02116,0.0056 10.5318,0.01951 4.05233,0.01592 8.10444,0.01591 12.15679,0.0073 3.90653,-0.0079 7.81297,-0.0045 11.71948,0.0039 1.65876,0.0034 3.31746,0.0029 4.97623,-7.67e-4 1.95518,-0.0038 3.91009,0.0023 5.86522,0.01582 0.71531,0.0034 1.43064,0.0035 2.14594,-1.07e-4 3.9371,-0.01747 6.89005,0.05547 10.22582,2.256995 2.45106,2.64204 2.66127,4.42601 2.61491,7.95672 -0.21596,2.39031 -1.10374,3.54849 -2.84929,5.11701 -3.26373,2.41602 -6.69612,2.17461 -10.60428,2.14039 -0.74296,0.003 -1.48591,0.006 -2.22886,0.0109 -2.00855,0.009 -4.01676,0.003 -6.0253,-0.007 -2.1064,-0.008 -4.21278,-0.004 -6.31919,-9.9e-4 -3.5361,0.002 -7.07206,-0.006 -10.60814,-0.0195 -4.08335,-0.0159 -8.16647,-0.0159 -12.24985,-0.007 -3.93514,0.008 -7.87019,0.005 -11.80531,-0.004 -1.67165,-0.003 -3.34322,-0.003 -5.01487,7.6e-4 -1.96942,0.004 -3.93859,-0.002 -5.90797,-0.0158 -0.72112,-0.003 -1.44226,-0.003 -2.16338,1.1e-4 -6.77737,0.0299 -6.77737,0.0299 -9.70884,-2.25701 -2.38668,-2.57748 -2.66431,-4.67269 -2.6149,-8.08477 0.22747,-2.29995 1.17251,-3.48049 2.85117,-4.99199 3.25375,-2.400531 6.65525,-2.171705 10.54899,-2.137342 z"
     fill="#a7683b"
     id="path8"
     style="stroke-width:0.49646" />
  <path
     d="m 17.671991,221.5894 c 16.539339,0 33.07868,0 50.119211,0 0,18.2332 0,18.2332 -6.947217,26.32448 -6.663379,5.79196 -13.472136,7.42379 -22.038128,7.06617 -5.629217,-0.49309 -10.962385,-3.93303 -14.682879,-8.05955 -0.244354,-0.25994 -0.488709,-0.51989 -0.740468,-0.78771 -6.369019,-7.00923 -5.710519,-15.17861 -5.710519,-24.54339 z"
     fill="#735f55"
     id="path9"
     style="stroke-width:0.49646" />
  <path
     d="m 51.967307,2.4797056 c 3.053736,1.7102399 5.709684,3.497285 8.05326,6.1696541 0.397022,0.4481971 0.794045,0.8963941 1.2031,1.3581733 5.745035,7.30503 5.053024,14.277249 5.053024,23.829759 -16.039743,0 -32.079487,0 -48.605284,0 0,-19.092992 0,-19.092992 7.218607,-26.6695753 7.502997,-6.34793692 17.97984,-8.9692165 27.077293,-4.6880111 z"
     fill="#735f55"
     id="path10"
     style="stroke-width:0.48752" />
  <path
     d="m 42.483483,221.5894 c 8.351548,0 16.703096,0 25.307719,0 0,18.2332 0,18.2332 -6.947217,26.32448 -5.320018,4.62428 -10.854054,6.95364 -17.864274,6.95364 -0.163755,-10.98179 -0.32751,-21.96356 -0.496228,-33.27812 z"
     fill="#665247"
     id="path11"
     style="stroke-width:0.49646" />
  <path
     d="m 42.21467,0.7472636 c 6.694656,0 11.774379,2.0503833 16.723104,6.6673936 0.357322,0.4074518 0.714643,0.8149037 1.082793,1.2347025 0.397022,0.4481971 0.794045,0.8963941 1.2031,1.3581733 5.745035,7.30503 5.053024,14.277249 5.053024,23.829759 -8.099275,0 -16.198553,0 -24.543262,0 0.15881,-10.91971 0.317619,-21.839419 0.481241,-33.0900284 z"
     fill="#665247"
     id="path12"
     style="stroke-width:0.48752" />
  <path
     d="m 145.20306,100.39743 c 4.99519,-0.0449 9.99026,-0.0814 14.98561,-0.10294 2.31966,-0.0104 4.63917,-0.0244 6.95874,-0.0469 2.2394,-0.0216 4.47865,-0.0335 6.71815,-0.0386 0.8535,-0.004 1.70699,-0.0108 2.56043,-0.0216 1.19748,-0.0145 2.39437,-0.0164 3.59191,-0.0155 0.52683,-0.0107 0.52683,-0.0107 1.06431,-0.0217 2.49385,0.0207 3.87458,0.68801 5.80416,2.23395 1.80049,1.89701 2.13875,3.4186 2.23302,5.96027 -0.0943,2.54166 -0.43253,4.06325 -2.23302,5.96026 -2.28038,1.82698 -4.01503,2.27032 -6.86847,2.21229 -0.37797,2.9e-4 -0.75591,5.8e-4 -1.14533,8.8e-4 -1.24066,-0.001 -2.48072,-0.0168 -3.72127,-0.0325 -0.86354,-0.004 -1.72708,-0.007 -2.59063,-0.009 -2.26635,-0.008 -4.53247,-0.027 -6.79872,-0.0491 -2.31514,-0.0203 -4.63032,-0.0295 -6.94553,-0.0394 -4.53792,-0.0212 -9.07557,-0.0562 -13.61336,-0.0971 0,-5.24504 0,-10.49006 0,-15.89404 z"
     fill="#99522e"
     id="path13"
     style="stroke-width:0.49646" />
  <path
     d="m 166.83364,138.36111 c 0.44827,-0.003 0.89654,-0.006 1.3584,-0.009 0.94376,-0.004 1.88757,-0.002 2.83132,0.004 1.43568,0.007 2.86976,-0.0101 4.3053,-0.029 0.92107,-4.8e-4 1.84213,4.6e-4 2.76319,0.003 0.4245,-0.007 0.84901,-0.0131 1.28637,-0.0199 3.08422,0.0474 5.10346,0.88131 7.50815,2.81577 1.73085,1.81906 2.12607,3.23555 2.23302,5.68087 -0.1123,2.66901 -0.56738,4.14497 -2.23302,6.23965 -1.12812,0.82233 -2.2041,1.37494 -3.47362,1.98674 -0.49126,0.24587 -0.49126,0.24587 -0.99246,0.4967 -1.43706,0.0675 -2.86156,0.10569 -4.29936,0.11834 -0.42976,0.004 -0.85952,0.008 -1.30229,0.0121 -0.91187,0.007 -1.82376,0.0122 -2.73564,0.0161 -1.38548,0.009 -2.77036,0.0304 -4.15569,0.0523 -0.88713,0.005 -1.77427,0.009 -2.66141,0.0127 -0.41058,0.009 -0.82115,0.0174 -1.24417,0.0263 -2.8417,-0.0105 -5.06771,-0.5757 -7.42047,-2.22459 -2.10974,-2.65315 -2.69334,-4.8379 -2.64979,-8.16043 0.26916,-2.0376 1.12249,-3.40282 2.64979,-4.75346 2.81071,-1.92685 4.86213,-2.28759 8.23238,-2.26808 z"
     fill="#9a5430"
     id="path14"
     style="stroke-width:0.49646" />
  <path
     d="m 108.98276,138.5624 c 0.39761,-0.005 0.79522,-0.0101 1.20488,-0.0144 0.428,-0.002 0.85601,-0.004 1.29699,-0.006 0.44241,-0.003 0.88483,-0.006 1.34067,-0.009 0.93643,-0.005 1.87287,-0.008 2.80932,-0.0101 1.42782,-0.005 2.85529,-0.0202 4.28301,-0.0359 0.91073,-0.003 1.82145,-0.006 2.73216,-0.008 0.42501,-0.006 0.85,-0.0123 1.28787,-0.0186 3.23245,0.012 5.27206,0.69001 7.74313,2.88231 1.91314,2.18087 2.31049,3.7645 2.23109,6.61604 -0.2619,2.38858 -1.30409,3.92169 -3.06848,5.45968 -1.87199,1.37663 -3.19343,2.22726 -5.5346,2.26311 -0.39437,0.008 -0.78873,0.0159 -1.19505,0.024 -0.42234,0.003 -0.84468,0.005 -1.27981,0.008 -0.65904,0.007 -0.65904,0.007 -1.3314,0.0136 -0.92929,0.007 -1.85861,0.0117 -2.78793,0.0134 -1.41281,0.006 -2.82452,0.0304 -4.2371,0.0554 -0.90522,0.005 -1.81045,0.008 -2.7157,0.0108 -0.41831,0.0101 -0.83663,0.0194 -1.26761,0.0295 -3.07484,-0.0231 -5.071,-0.86799 -7.47067,-2.79028 -2.09199,-2.29655 -2.15605,-4.5934 -2.12449,-7.58614 0.26132,-2.53575 1.57447,-3.83758 3.39607,-5.48297 1.5845,-1.09799 2.80476,-1.3966 4.68765,-1.41489 z"
     fill="#a7693c"
     id="path15"
     style="stroke-width:0.49646" />
</svg>
